<svg width="213" height="61" viewBox="0 0 213 61" fill="none" xmlns="http://www.w3.org/2000/svg">
<path fill-rule="evenodd" clip-rule="evenodd" d="M105.236 7.25788C107.289 5.18923 110.617 5.18923 112.67 7.25788C114.723 9.32668 114.723 12.6808 112.67 14.7496L100.154 27.3623C96.5609 22.5091 96.9512 15.6069 101.325 11.1989L105.236 7.25788Z" fill="#4F9E91"/>
<path fill-rule="evenodd" clip-rule="evenodd" d="M123.127 35.7141C125.181 37.7827 125.181 41.137 123.127 43.2056C121.076 45.2744 117.747 45.2744 115.694 43.2056L103.179 30.5931C107.994 26.9719 114.843 27.3651 119.217 31.7731L123.127 35.7141Z" fill="#EBE1C5"/>
<path fill-rule="evenodd" clip-rule="evenodd" d="M94.8906 53.7456C92.8378 55.8144 89.5095 55.8144 87.4568 53.7456C85.4039 51.6768 85.4039 48.3227 87.4568 46.2539L99.9721 33.6413C103.565 38.4945 103.175 45.3967 98.8012 49.8046L94.8906 53.7456Z" fill="#EBCC6E"/>
<path fill-rule="evenodd" clip-rule="evenodd" d="M76.9986 25.2884C74.9458 23.2196 74.9458 19.8655 76.9986 17.7967C79.0515 15.7279 82.3797 15.7279 84.4326 17.7967L96.9481 30.4094C92.1323 34.0307 85.2831 33.6373 80.9092 29.2294L76.9986 25.2884Z" fill="#ED834E"/>
<path fill-rule="evenodd" clip-rule="evenodd" d="M102.439 52.2007C105.466 48.809 106.873 44.4691 106.659 40.1962L112.67 46.2535C112.685 46.2686 112.7 46.2836 112.715 46.2987V50.6232C112.715 53.5489 110.362 55.9206 107.458 55.9206C105.1 55.9206 103.105 54.3559 102.439 52.2007Z" fill="#ED834E"/>
<path fill-rule="evenodd" clip-rule="evenodd" d="M78.5315 32.8955C81.8968 35.9461 86.2033 37.3639 90.4433 37.1488L84.4328 43.2061C84.4177 43.2212 84.4028 43.2364 84.388 43.2514H80.0968C77.1936 43.2516 74.8402 40.8797 74.8402 37.9541C74.8402 35.5779 76.3928 33.5669 78.5315 32.8955Z" fill="#4F9E91"/>
<path fill-rule="evenodd" clip-rule="evenodd" d="M121.595 28.1083C118.23 25.0577 113.923 23.6399 109.683 23.8549L115.694 17.7977C115.709 17.7826 115.724 17.7674 115.739 17.7522H120.03C122.933 17.7522 125.287 20.1241 125.287 23.0497C125.287 25.4261 123.734 27.4369 121.595 28.1083Z" fill="#EBCC6E"/>
<path fill-rule="evenodd" clip-rule="evenodd" d="M97.6877 8.80257C94.6607 12.1941 93.2539 16.534 93.4672 20.8071L87.4567 14.7497C87.4417 14.7347 87.4267 14.7196 87.4116 14.7046V10.38C87.4116 7.45438 89.7651 5.08252 92.6682 5.08252C95.0262 5.08252 97.0215 6.64731 97.6877 8.80257Z" fill="#EBE1C5"/>
<path fill-rule="evenodd" clip-rule="evenodd" d="M92.6684 0.772827C87.4033 0.772827 83.135 5.07426 83.135 10.3803V12.2489C79.9674 11.4148 76.457 12.2484 73.9747 14.75C70.2517 18.5019 70.2517 24.585 73.9747 28.337L75.2857 29.6582C72.4607 31.3257 70.5635 34.4167 70.5635 37.9543C70.5635 43.2603 74.8318 47.5617 80.0969 47.5617H81.9509C81.1233 50.7539 81.9505 54.2917 84.4327 56.7931C88.1558 60.545 94.192 60.545 97.9151 56.7931L101.826 52.8522C105.275 49.3758 106.886 44.748 106.659 40.1963L112.67 46.2536C116.393 50.0056 122.429 50.0056 126.152 46.2536C129.876 42.5017 129.876 36.4186 126.152 32.6668L124.842 31.3457C127.666 29.6782 129.563 26.5872 129.563 23.0496C129.563 17.7436 125.294 13.4422 120.03 13.4422H118.176C119.004 10.2498 118.176 6.71209 115.694 4.21054C111.971 0.458585 105.935 0.458585 102.212 4.21054L98.3011 8.15152C94.8515 11.628 93.2403 16.2556 93.4677 20.8073L87.457 14.75C87.4419 14.7349 87.427 14.7199 87.4119 14.7048V10.3803C87.4119 7.45461 89.7653 5.0829 92.6684 5.0829C95.0265 5.0829 97.0218 6.64755 97.688 8.80281C97.8855 8.58159 98.0898 8.36439 98.301 8.15152L100.901 5.53176C99.2459 2.68481 96.1788 0.772827 92.6684 0.772827ZM115.739 17.7523C115.724 17.7673 115.709 17.7825 115.694 17.7976L109.683 23.8548C113.924 23.6398 118.23 25.0575 121.595 28.1082C123.734 27.4368 125.287 25.4258 125.287 23.0496C125.287 20.124 122.934 17.7523 120.03 17.7523H115.739ZM84.3878 43.2517C84.4027 43.2364 84.4177 43.2212 84.4327 43.2062L90.4432 37.1489C86.2032 37.364 81.8969 35.9462 78.5316 32.8957C76.3929 33.5671 74.8402 35.578 74.8402 37.9543C74.8402 40.8799 77.1938 43.2517 80.0969 43.2517H84.3878ZM78.3677 32.7452C78.2045 32.5933 78.0437 32.4375 77.8853 32.2778V32.278C78.0437 32.4376 78.2045 32.5933 78.3677 32.7452ZM107.458 60.2311C103.948 60.2311 100.881 58.319 99.2261 55.472L101.826 52.8522C102.037 52.6394 102.241 52.4222 102.439 52.2009C103.105 54.3562 105.1 55.921 107.458 55.921C110.361 55.921 112.715 53.5493 112.715 50.6236V46.2991C113.947 47.5243 115.427 48.343 116.992 48.7549V50.6236C116.992 55.9297 112.723 60.2311 107.458 60.2311ZM112.67 7.25814C110.617 5.18949 107.289 5.18949 105.236 7.25814L101.325 11.1991C96.9514 15.6071 96.561 22.5094 100.154 27.3625L112.67 14.7498C114.723 12.681 114.723 9.32694 112.67 7.25814ZM123.127 43.206C125.181 41.1372 125.181 37.7832 123.127 35.7144L119.217 31.7734C114.843 27.3655 107.994 26.9721 103.178 30.5933L115.694 43.206C117.747 45.2748 121.076 45.2748 123.127 43.206ZM94.8908 53.7455C92.8379 55.8143 89.5097 55.8143 87.4569 53.7455C85.4042 51.6767 85.4042 48.3226 87.4569 46.2538L99.9724 33.6411C103.566 38.4942 103.175 45.3966 98.8014 49.8045L94.8908 53.7455ZM76.9988 17.7976C74.9461 19.8664 74.9461 23.2205 76.9988 25.2893L80.9094 29.2302C85.2835 33.6381 92.1325 34.0315 96.9482 30.4103L84.4327 17.7976C82.3799 15.7289 79.0517 15.7289 76.9988 17.7976Z" fill="#3D3A2C"/>
<path d="M0 20.2006H4.67521V34.8411H12.705V38.8073H0V20.2006Z" fill="white"/>
<path d="M21.1938 39.2067C19.6266 39.2067 18.253 38.9227 17.0731 38.3549C15.8933 37.7692 14.9777 36.9706 14.3261 35.9592C13.6922 34.9298 13.3752 33.7498 13.3752 32.4187C13.3752 31.0878 13.6922 29.9166 14.3261 28.9051C14.9777 27.8758 15.8933 27.0772 17.0731 26.5094C18.253 25.9237 19.6266 25.631 21.1938 25.631C22.761 25.631 24.1345 25.9237 25.3143 26.5094C26.4941 27.0772 27.401 27.8758 28.0349 28.9051C28.6865 29.9166 29.0122 31.0878 29.0122 32.4187C29.0122 33.7498 28.6865 34.9298 28.0349 35.9592C27.401 36.9706 26.4941 37.7692 25.3143 38.3549C24.1345 38.9227 22.761 39.2067 21.1938 39.2067ZM21.1938 35.5598C22.127 35.5598 22.8666 35.2848 23.4125 34.7347C23.976 34.1667 24.2577 33.3949 24.2577 32.4187C24.2577 31.4428 23.976 30.6797 23.4125 30.1296C22.8666 29.5617 22.127 29.2778 21.1938 29.2778C20.2604 29.2778 19.5121 29.5617 18.9486 30.1296C18.4027 30.6797 18.1297 31.4428 18.1297 32.4187C18.1297 33.3949 18.4027 34.1667 18.9486 34.7347C19.5121 35.2848 20.2604 35.5598 21.1938 35.5598Z" fill="white"/>
<path d="M37.7443 44.9298C36.8991 44.9298 36.045 44.8499 35.1821 44.6902C34.3369 44.5304 33.606 44.3175 32.9898 44.0513V40.8038C34.3808 41.4071 35.9657 41.7088 37.7443 41.7088C39.0297 41.7088 39.9542 41.4426 40.5177 40.9102C41.0988 40.3779 41.3894 39.5971 41.3894 38.5677V37.7959C40.8787 38.2395 40.2447 38.5855 39.4875 38.834C38.7479 39.0825 37.9555 39.2067 37.1103 39.2067C35.772 39.2067 34.5922 38.9227 33.5708 38.3549C32.5496 37.7869 31.7483 36.9883 31.1672 35.9592C30.6037 34.9298 30.322 33.7498 30.322 32.4187C30.322 31.0701 30.6037 29.8811 31.1672 28.8519C31.7307 27.8226 32.5231 27.0328 33.5445 26.4828C34.5657 25.9149 35.7368 25.631 37.0575 25.631C38.8713 25.631 40.368 26.19 41.5478 27.308V26.0302H46.0382V37.929C46.0382 40.1471 45.3602 41.8686 44.0043 43.0931C42.6661 44.3175 40.5793 44.9298 37.7443 44.9298ZM38.2725 35.5865C38.9945 35.5865 39.6372 35.4001 40.2007 35.0275C40.7642 34.6548 41.1604 34.1579 41.3894 33.5368V31.3009C41.1428 30.6797 40.7378 30.1916 40.1743 29.8367C39.6108 29.4642 38.9769 29.2778 38.2725 29.2778C37.3217 29.2778 36.5556 29.5617 35.9745 30.1296C35.3934 30.6797 35.1028 31.4338 35.1028 32.3922C35.1028 33.3682 35.3934 34.149 35.9745 34.7347C36.5556 35.3025 37.3217 35.5865 38.2725 35.5865Z" fill="white"/>
<path d="M55.0362 39.2067C53.469 39.2067 52.0955 38.9227 50.9157 38.3549C49.7359 37.7692 48.8201 36.9706 48.1686 35.9592C47.5346 34.9298 47.2177 33.7498 47.2177 32.4187C47.2177 31.0878 47.5346 29.9166 48.1686 28.9051C48.8201 27.8758 49.7359 27.0772 50.9157 26.5094C52.0955 25.9237 53.469 25.631 55.0362 25.631C56.6034 25.631 57.9769 25.9237 59.1567 26.5094C60.3365 27.0772 61.2434 27.8758 61.8774 28.9051C62.5289 29.9166 62.8547 31.0878 62.8547 32.4187C62.8547 33.7498 62.5289 34.9298 61.8774 35.9592C61.2434 36.9706 60.3365 37.7692 59.1567 38.3549C57.9769 38.9227 56.6034 39.2067 55.0362 39.2067ZM55.0362 35.5598C55.9694 35.5598 56.709 35.2848 57.255 34.7347C57.8184 34.1667 58.1002 33.3949 58.1002 32.4187C58.1002 31.4428 57.8184 30.6797 57.255 30.1296C56.709 29.5617 55.9694 29.2778 55.0362 29.2778C54.103 29.2778 53.3545 29.5617 52.791 30.1296C52.2451 30.6797 51.9721 31.4428 51.9721 32.4187C51.9721 33.3949 52.2451 34.1667 52.791 34.7347C53.3545 35.2848 54.103 35.5598 55.0362 35.5598Z" fill="white"/>
<path d="M137.418 20.2006H142.094V38.8073H137.418V20.2006Z" fill="white"/>
<path d="M144.461 26.0302H148.952V27.308C150.131 26.19 151.627 25.631 153.441 25.631C154.762 25.631 155.933 25.9149 156.954 26.4828C157.976 27.0328 158.768 27.8226 159.331 28.8519C159.895 29.8634 160.177 31.0436 160.177 32.3922C160.177 33.7231 159.895 34.9121 159.331 35.9592C158.768 36.9883 157.976 37.7869 156.954 38.3549C155.951 38.9227 154.78 39.2067 153.441 39.2067C152.596 39.2067 151.786 39.0735 151.012 38.8073C150.255 38.559 149.62 38.2128 149.11 37.7692V44.6369H144.461V26.0302ZM152.227 35.5598C153.178 35.5598 153.944 35.276 154.524 34.708C155.105 34.1402 155.397 33.3682 155.397 32.3922C155.397 31.4161 155.105 30.6531 154.524 30.1029C153.944 29.5351 153.178 29.2511 152.227 29.2511C151.522 29.2511 150.888 29.4375 150.324 29.8102C149.761 30.1651 149.357 30.6531 149.11 31.2742V33.5368C149.357 34.1579 149.761 34.6548 150.324 35.0275C150.888 35.3824 151.522 35.5598 152.227 35.5598Z" fill="white"/>
<path d="M167.107 39.2067C166.087 39.2067 165.022 39.1002 163.912 38.8872C162.803 38.6921 161.921 38.4081 161.27 38.0354V34.6016C161.992 35.0275 162.855 35.3824 163.859 35.6664C164.88 35.9325 165.813 36.0656 166.659 36.0656C167.274 36.0656 167.724 36.0212 168.005 35.9325C168.288 35.8438 168.428 35.6664 168.428 35.4001C168.428 35.1871 168.332 35.0185 168.138 34.8944C167.962 34.7524 167.627 34.6104 167.134 34.4685C166.659 34.3088 166.104 34.1402 165.47 33.9627C164.396 33.6432 163.551 33.315 162.934 32.9778C162.318 32.6406 161.861 32.2147 161.56 31.7001C161.261 31.1855 161.112 30.5378 161.112 29.7569C161.112 28.3727 161.649 27.3435 162.723 26.6691C163.815 25.977 165.303 25.631 167.187 25.631C168.103 25.631 169.063 25.7286 170.066 25.9237C171.088 26.119 171.853 26.3763 172.364 26.6958V30.0764C171.836 29.7215 171.131 29.4285 170.251 29.1979C169.388 28.9672 168.578 28.8519 167.82 28.8519C167.223 28.8519 166.755 28.9139 166.421 29.0381C166.087 29.1447 165.92 29.3398 165.92 29.6238C165.92 29.8901 166.087 30.0941 166.421 30.236C166.755 30.378 167.354 30.5555 168.217 30.7684C168.78 30.9104 169.018 30.9725 168.93 30.9547C170.057 31.2564 170.928 31.5936 171.545 31.9663C172.162 32.339 172.592 32.7826 172.839 33.2972C173.104 33.7941 173.236 34.433 173.236 35.2138C173.236 36.4383 172.708 37.4142 171.651 38.1419C170.612 38.8517 169.097 39.2067 167.107 39.2067Z" fill="white"/>
<path d="M180.176 39.2068C178.434 39.2068 177.122 38.7188 176.242 37.7428C175.379 36.7667 174.947 35.4802 174.947 33.8831V26.0303H179.596V33.3506C179.596 34.8236 180.256 35.56 181.577 35.56C182.176 35.56 182.722 35.418 183.215 35.1341C183.707 34.8501 184.112 34.4331 184.429 33.8831V26.0303H189.078V38.8075H184.589V37.4233C184.043 38.0089 183.382 38.4525 182.607 38.7542C181.833 39.056 181.022 39.2068 180.176 39.2068Z" fill="white"/>
<path d="M191.458 26.0302H195.765V27.4145C196.293 26.8467 196.901 26.4118 197.587 26.1101C198.273 25.7906 199.004 25.631 199.779 25.631C200.73 25.631 201.488 25.7729 202.051 26.0569C202.633 26.3409 203.098 26.7667 203.451 27.3346C203.979 26.8022 204.622 26.3851 205.379 26.0836C206.137 25.7818 206.903 25.631 207.677 25.631C209.35 25.631 210.539 26.0658 211.243 26.9353C211.947 27.7871 212.299 29.0204 212.299 30.6353V38.8073H207.862V31.3009C207.862 30.591 207.73 30.0764 207.465 29.757C207.202 29.4375 206.761 29.2778 206.146 29.2778C205.353 29.2778 204.709 29.5617 204.217 30.1296C204.234 30.4312 204.243 30.8927 204.243 31.5138V38.8073H199.806V31.1145C199.806 30.4579 199.692 29.9876 199.463 29.7037C199.233 29.4198 198.828 29.2778 198.248 29.2778C197.349 29.2778 196.575 29.7835 195.923 30.7951V38.8073H191.458V26.0302Z" fill="white"/>
</svg>
