<svg width="207" height="61" viewBox="0 0 207 61" fill="none" xmlns="http://www.w3.org/2000/svg">
<path d="M29.5 0.772827C25.6261 0.772827 21.7899 1.54188 18.2108 3.03581C14.6317 4.52991 11.3797 6.71967 8.6403 9.48023C5.90101 12.241 3.72813 15.5181 2.24554 19.125C0.763123 22.732 0 26.5979 0 30.502C0 34.406 0.763123 38.272 2.24554 41.8789C3.72813 45.4858 5.90101 48.7629 8.6403 51.5237C11.3797 54.2842 14.6317 56.474 18.2108 57.9681C21.7899 59.462 25.6261 60.2311 29.5 60.2311V45.3665C27.5629 45.3665 25.6449 44.9821 23.8554 44.2349C22.0658 43.488 20.4398 42.3931 19.0702 41.0128C17.7005 39.6325 16.6141 37.9939 15.8729 36.1904C15.1315 34.387 14.75 32.4541 14.75 30.502C14.75 28.5499 15.1315 26.617 15.8729 24.8135C16.6141 23.01 17.7005 21.3714 19.0702 19.9911C20.4398 18.6108 22.0658 17.5159 23.8554 16.769C25.6449 16.0218 27.5629 15.6374 29.5 15.6374V0.772827Z" fill="#0F52FF"/>
<path d="M29.4999 40.4116C34.9307 40.4116 39.3333 35.9749 39.3333 30.5019C39.3333 25.029 34.9307 20.5922 29.4999 20.5922C24.0692 20.5922 19.6666 25.029 19.6666 30.5019C19.6666 35.9749 24.0692 40.4116 29.4999 40.4116Z" fill="#0F52FF"/>
<path d="M0 30.502C0 34.406 0.763123 38.272 2.24554 41.8789C3.72813 45.4858 5.90101 48.7629 8.6403 51.5237C11.3797 54.2842 14.6317 56.474 18.2108 57.9681C21.7899 59.462 25.6261 60.2311 29.5 60.2311C33.3739 60.2311 37.2101 59.462 40.7892 57.9681C44.3683 56.474 47.6202 54.2842 50.3597 51.5237C53.099 48.7629 55.2719 45.4858 56.7545 41.8789C58.2369 38.272 59 34.406 59 30.502H44.25C44.25 32.4541 43.8685 34.387 43.1271 36.1904C42.3859 37.9939 41.2995 39.6325 39.9298 41.0128C38.5602 42.3931 36.9342 43.488 35.1446 44.2349C33.3551 44.9821 31.4371 45.3665 29.5 45.3665C27.5629 45.3665 25.6449 44.9821 23.8554 44.2349C22.0658 43.488 20.4398 42.3931 19.0702 41.0128C17.7005 39.6325 16.6141 37.9939 15.8729 36.1904C15.1315 34.387 14.75 32.4541 14.75 30.502H0Z" fill="#5BD0F4"/>
<path d="M39.3334 30.5021C39.3334 27.8738 38.2973 25.3533 36.4533 23.4948C34.6091 21.6363 32.108 20.5922 29.5001 20.5922C26.8921 20.5922 24.391 21.6363 22.5468 23.4948C20.7027 25.3533 19.6666 27.8738 19.6666 30.5021H29.5001H39.3334Z" fill="#5BD0F4"/>
<path d="M74.4066 19.3322H70.7427V39.8453H74.4066V19.3322Z" fill="#0F52FF"/>
<path d="M76.7992 32.5784C76.7992 37.3257 80.056 40.2562 84.3596 40.2562C88.6633 40.2562 91.9201 37.3257 91.9201 32.5784C91.9201 27.8311 88.6633 24.9007 84.3596 24.9007C80.056 24.9007 76.7992 27.8311 76.7992 32.5784ZM80.4631 32.5784C80.4631 29.7652 82.0915 28.1241 84.3596 28.1241C86.6278 28.1241 88.2562 29.7652 88.2562 32.5784C88.2562 35.3916 86.6278 37.0327 84.3596 37.0327C82.0915 37.0327 80.4631 35.3916 80.4631 32.5784Z" fill="#0F52FF"/>
<path d="M105.013 25.3109V27.2742H104.722C103.85 26.0142 102.454 24.9007 99.9533 24.9007C96.522 24.9007 93.4397 27.8311 93.4397 32.344C93.4397 36.8569 96.522 39.7873 99.9533 39.7873C102.454 39.7873 103.85 38.6443 104.664 37.5016H104.955V38.9082C104.955 41.7214 103.326 43.0108 100.942 43.0108C98.5575 43.0108 97.3362 41.7214 96.8418 40.051L93.556 41.487C94.3121 43.6847 96.522 46.1171 101 46.1171C105.595 46.1171 108.619 43.6847 108.619 38.996V25.3109H105.013ZM101.058 36.6224C98.7902 36.6224 97.1036 34.9814 97.1036 32.344C97.1036 29.7066 98.7902 28.0655 101.058 28.0655C103.326 28.0655 105.013 29.7066 105.013 32.344C105.013 34.9814 103.326 36.6224 101.058 36.6224Z" fill="#0F52FF"/>
<path d="M110.989 32.5784C110.989 37.3257 114.246 40.2562 118.55 40.2562C122.853 40.2562 126.11 37.3257 126.11 32.5784C126.11 27.8311 122.853 24.9007 118.55 24.9007C114.246 24.9007 110.989 27.8311 110.989 32.5784ZM114.653 32.5784C114.653 29.7652 116.282 28.1241 118.55 28.1241C120.818 28.1241 122.446 29.7652 122.446 32.5784C122.446 35.3916 120.818 37.0327 118.55 37.0327C116.282 37.0327 114.653 35.3916 114.653 32.5784Z" fill="#0F52FF"/>
<path d="M128.986 21.0905C128.986 22.5851 130.12 23.6107 131.575 23.6107C133.028 23.6107 134.163 22.5851 134.163 21.0905C134.163 19.596 133.028 18.5703 131.575 18.5703C130.12 18.5703 128.986 19.596 128.986 21.0905ZM133.406 25.3103H129.743V39.8453H133.406V25.3103Z" fill="#5BD0F4"/>
<path d="M136.671 45.7068H140.336V37.9704H140.626C141.44 39.1426 142.836 40.2562 145.337 40.2562C148.768 40.2562 151.851 37.3257 151.851 32.5784C151.851 27.8311 148.768 24.9007 145.337 24.9007C142.836 24.9007 141.44 26.0142 140.568 27.2744H140.277V25.3109H136.671V45.7068ZM144.231 37.0913C141.964 37.0913 140.277 35.4502 140.277 32.5784C140.277 29.7066 141.964 28.0655 144.231 28.0655C146.5 28.0655 148.186 29.7066 148.186 32.5784C148.186 35.4502 146.5 37.0913 144.231 37.0913Z" fill="#5BD0F4"/>
<path d="M153.989 29.3843C153.989 32.2561 156.372 33.3111 159.396 33.8972L160.153 34.0436C161.955 34.3953 162.769 34.8349 162.769 35.7727C162.769 36.7104 161.955 37.4429 160.27 37.4429C158.582 37.4429 157.217 36.7396 156.837 34.6297L153.464 35.5089C153.96 38.5565 156.489 40.2562 160.27 40.2562C163.933 40.2562 166.318 38.5273 166.318 35.4796C166.318 32.4318 163.875 31.6114 160.619 30.9668L159.862 30.8201C158.35 30.5271 157.535 30.1168 157.535 29.1499C157.535 28.2707 158.292 27.7139 159.688 27.7139C161.084 27.7139 162.072 28.3 162.421 29.8824L165.736 28.8568C165.038 26.5125 162.916 24.9007 159.688 24.9007C156.256 24.9007 153.989 26.5125 153.989 29.3843Z" fill="#5BD0F4"/>
<path d="M182.775 39.8453V25.3103H179.112V32.8123C179.112 35.5083 177.804 37.0907 175.564 37.0907C173.586 37.0907 172.482 36.0065 172.482 33.8086V25.3103H168.817V33.9844C168.817 37.589 171.058 40.0797 174.431 40.0797C177.076 40.0797 178.298 38.9076 178.879 37.6768H179.169V39.8453H182.775Z" fill="#5BD0F4"/>
<path d="M186.025 25.3106V39.8456H189.69V31.1714C189.69 29.1787 190.621 28.0652 192.306 28.0652C193.761 28.0652 194.633 28.8857 194.633 30.4681V39.8456H198.297V31.1714C198.297 29.1787 199.228 28.0652 200.914 28.0652C202.368 28.0652 203.24 28.8857 203.24 30.4681V39.8456H206.905V30.2923C206.905 26.7758 204.752 25.0761 202.077 25.0761C199.722 25.0761 198.646 26.1311 197.948 27.3619H197.657C196.988 25.9846 195.796 25.0761 193.702 25.0761C191.608 25.0761 190.474 26.0139 189.923 27.1274H189.631V25.3106H186.025Z" fill="#5BD0F4"/>
</svg>
