<svg width="218" height="61" viewBox="0 0 218 61" fill="none" xmlns="http://www.w3.org/2000/svg">
<path d="M17.9568 57.5125L11.9976 47.1106L20.743 31.8871L26.3005 41.5884L59.107 41.5706L49.798 57.6561L17.9568 57.5125Z" fill="#FFAD64"/>
<path d="M64.9648 31.2423L59.0056 41.644L41.5506 41.6233L47.1086 31.9223L30.6901 3.29929L49.1677 3.38098L64.9648 31.2423Z" fill="#ADD4D3"/>
<path d="M18.8747 3.24316H30.7931L39.5028 18.4877L28.3871 18.4872L11.9992 47.1281L2.83057 30.9609L18.8747 3.24316Z" fill="#FB8351"/>
<path fill-rule="evenodd" clip-rule="evenodd" d="M32.2463 0.834963L32.2108 0.772827H17.4668L0 30.9485L11.99 52.0906L12.0047 52.065L16.5374 59.9769L51.2023 60.1332L63.3759 39.0977H63.2949L67.792 31.2481L50.5939 0.916085L32.2463 0.834963ZM43.6518 20.9586H43.7437L35.0767 5.78888L47.7413 5.84483L62.1375 31.2353L57.6314 39.1009L45.8226 39.1072L49.9399 31.921L43.6518 20.9586ZM29.2438 5.71409L35.1536 16.017L26.9712 16.0167L12.9627 40.499L12.0072 42.1624L5.6619 30.9737L20.2831 5.71409H29.2438ZM23.5619 31.8668L29.8037 20.9581L37.9881 20.9584L44.2772 31.9224L40.159 39.1104L27.7154 39.1171L23.5619 31.8668ZM14.8338 47.1206L17.2085 42.9706L20.7398 36.8236L24.8853 44.06L37.327 44.0532L37.3069 44.0883L54.7996 44.1092L48.3932 55.1792L19.3756 55.0483L14.8338 47.1206Z" fill="#333237"/>
<path d="M82.0712 51.5375V39.9708H77.8291V38.6723H87.9389V39.9708H83.6967V51.5375H82.0712Z" fill="white"/>
<path d="M92.4556 51.7378C90.7772 51.7378 89.5218 51.3316 88.6893 50.5192C87.8566 49.7069 87.4404 48.4549 87.4404 46.7635C87.4404 45.2453 87.7972 44.0533 88.5109 43.1876C89.2376 42.3086 90.3809 41.8691 91.9403 41.8691C92.8653 41.8691 93.6251 42.0423 94.2199 42.3886C94.8277 42.7214 95.2772 43.1876 95.5679 43.787C95.8718 44.3729 96.0238 45.0389 96.0238 45.7847V47.5626H89.0659C89.1187 48.2818 89.2707 48.8477 89.5218 49.2607C89.7861 49.6735 90.1759 49.9731 90.6914 50.1596C91.2199 50.3327 91.9139 50.4193 92.7728 50.4193C93.7375 50.4193 94.6229 50.2529 95.429 49.9199V51.1984C95.0194 51.3716 94.5568 51.5048 94.0415 51.598C93.5392 51.6912 93.0107 51.7378 92.4556 51.7378ZM89.0659 46.384H94.5767V45.6049C94.5767 44.8323 94.3719 44.2397 93.9621 43.8269C93.5658 43.4008 92.9049 43.1876 91.9798 43.1876C90.8566 43.1876 90.0901 43.454 89.6804 43.9867C89.2707 44.5194 89.0659 45.3185 89.0659 46.384Z" fill="white"/>
<path d="M102.847 51.7378C101.208 51.7378 99.9921 51.3116 99.1992 50.4593C98.4063 49.5937 98.0098 48.375 98.0098 46.8034C98.0098 45.1387 98.4591 43.9002 99.3578 43.0878C100.256 42.2754 101.466 41.8691 102.985 41.8691C103.607 41.8691 104.122 41.9157 104.532 42.009C104.941 42.0889 105.338 42.222 105.721 42.4085V43.707C105.007 43.3608 104.195 43.1876 103.283 43.1876C102.12 43.1876 101.221 43.4674 100.587 44.0267C99.9524 44.5727 99.6353 45.4983 99.6353 46.8034C99.6353 48.0554 99.9129 48.9743 100.468 49.5603C101.023 50.133 101.941 50.4193 103.223 50.4193C104.135 50.4193 104.974 50.2462 105.741 49.8999V51.2184C105.331 51.3916 104.888 51.518 104.413 51.598C103.95 51.6912 103.428 51.7378 102.847 51.7378Z" fill="white"/>
<path d="M107.563 51.5375V38.0729H109.188V43.0873C109.625 42.7277 110.133 42.4347 110.715 42.2083C111.31 41.9818 111.997 41.8686 112.776 41.8686C113.913 41.8686 114.765 42.1483 115.334 42.7077C115.902 43.2671 116.186 44.146 116.186 45.3446V51.5375H114.561V45.4046C114.561 44.5788 114.376 44.0062 114.006 43.6865C113.649 43.3536 113.054 43.1871 112.221 43.1871C111.693 43.1871 111.144 43.3069 110.576 43.5467C110.021 43.7731 109.559 44.0728 109.188 44.4456V51.5375H107.563Z" fill="white"/>
<path d="M122.669 51.7377C121.347 51.7377 120.29 51.4447 119.497 50.8586C118.704 50.2726 118.308 49.4869 118.308 48.5013C118.308 47.5957 118.585 46.8166 119.14 46.164C119.695 45.5114 120.455 44.9321 121.42 44.4261C120.904 43.9067 120.468 43.4205 120.112 42.9677C119.755 42.515 119.576 41.9688 119.576 41.3296C119.576 40.5305 119.847 39.8579 120.389 39.3119C120.944 38.7526 121.724 38.4729 122.728 38.4729C123.706 38.4729 124.466 38.7326 125.008 39.2519C125.549 39.7713 125.821 40.4639 125.821 41.3296C125.821 42.0488 125.629 42.6548 125.245 43.1475C124.862 43.6403 124.314 44.1397 123.6 44.6459L126.891 48.0219C127.115 47.5291 127.228 46.9032 127.228 46.144V45.8644H128.517V46.144C128.517 46.6636 128.457 47.1696 128.338 47.6623C128.22 48.1551 128.047 48.5813 127.823 48.9409L129.607 50.7588L128.615 51.6577L127.029 50.0796C126.567 50.6522 125.966 51.0718 125.226 51.3381C124.486 51.6045 123.633 51.7377 122.669 51.7377ZM122.589 43.8467C123.211 43.4605 123.68 43.0943 123.997 42.748C124.314 42.3884 124.473 41.9356 124.473 41.3896C124.473 40.8835 124.334 40.4839 124.056 40.1909C123.792 39.8847 123.349 39.7315 122.728 39.7315C122.094 39.7315 121.631 39.8913 121.341 40.2109C121.063 40.5305 120.924 40.9234 120.924 41.3896C120.924 41.8158 121.07 42.2086 121.36 42.5682C121.664 42.9278 122.074 43.3539 122.589 43.8467ZM122.669 50.559C123.435 50.559 124.089 50.4458 124.631 50.2194C125.186 49.9796 125.655 49.6268 126.039 49.1606L122.411 45.4249C121.552 45.8244 120.911 46.2572 120.488 46.7234C120.079 47.1762 119.874 47.7555 119.874 48.4615C119.874 49.1539 120.138 49.68 120.667 50.0396C121.195 50.3858 121.863 50.559 122.669 50.559Z" fill="#FB8351"/>
<path d="M78.4695 29.334V11.5206H83.6296V25.3508H91.5893V29.334H78.4695Z" fill="#FB8351"/>
<path d="M99.8905 29.6108C97.2922 29.6108 95.3709 29.0298 94.1266 27.8681C92.9007 26.7063 92.2877 25.0098 92.2877 22.7785C92.2877 20.5658 92.9099 18.8785 94.1541 17.7167C95.3984 16.5366 97.3105 15.9464 99.8905 15.9464C102.489 15.9464 104.41 16.5366 105.654 17.7167C106.917 18.8785 107.548 20.5658 107.548 22.7785C107.548 25.0098 106.926 26.7063 105.682 27.8681C104.438 29.0298 102.507 29.6108 99.8905 29.6108ZM99.8905 25.8212C100.732 25.8212 101.336 25.5815 101.702 25.102C102.086 24.6226 102.278 23.8481 102.278 22.7785C102.278 21.7275 102.086 20.9622 101.702 20.4828C101.336 19.9848 100.732 19.7359 99.8905 19.7359C99.0672 19.7359 98.4724 19.9848 98.1065 20.4828C97.7405 20.9622 97.5576 21.7275 97.5576 22.7785C97.5576 23.8481 97.7405 24.6226 98.1065 25.102C98.4724 25.5815 99.0672 25.8212 99.8905 25.8212Z" fill="#FB8351"/>
<path d="M115.191 34.2024C114.55 34.2024 113.855 34.1747 113.105 34.1194C112.354 34.0826 111.641 34.0088 110.964 33.8982C110.305 33.7875 109.756 33.6584 109.317 33.5108V30.1916C109.811 30.3575 110.378 30.4959 111.019 30.6065C111.677 30.7171 112.345 30.8001 113.022 30.8555C113.699 30.9107 114.321 30.9385 114.889 30.9385C115.858 30.9385 116.618 30.8831 117.167 30.7725C117.734 30.6803 118.018 30.5051 118.018 30.2469C118.018 30.0257 117.926 29.8782 117.743 29.8044C117.56 29.749 117.213 29.7214 116.7 29.7214H113.269C111.934 29.7214 110.9 29.5094 110.168 29.0852C109.454 28.6426 109.097 27.988 109.097 27.1213C109.097 25.9042 109.765 25.056 111.101 24.5766C110.351 24.1892 109.802 23.7006 109.454 23.1105C109.106 22.5205 108.933 21.7736 108.933 20.87C108.933 19.1735 109.5 17.9287 110.634 17.1358C111.787 16.343 113.443 15.9464 115.602 15.9464C116.06 15.9464 116.572 15.9832 117.139 16.057C117.707 16.1124 118.118 16.1678 118.374 16.223H123.48L123.37 19.3763H121.641C121.97 19.8004 122.135 20.3168 122.135 20.9254C122.135 22.2715 121.741 23.3411 120.954 24.134C120.186 24.9084 118.969 25.2958 117.304 25.2958C117.066 25.2958 116.81 25.2865 116.535 25.268C116.261 25.2312 116.005 25.2036 115.767 25.185C115.364 25.222 115.017 25.2958 114.724 25.4064C114.431 25.517 114.285 25.7014 114.285 25.9595C114.285 26.1439 114.367 26.2731 114.532 26.3467C114.697 26.4021 114.925 26.4297 115.218 26.4297H118.21C119.546 26.4297 120.598 26.7433 121.366 27.3703C122.135 27.9972 122.519 28.9192 122.519 30.1363C122.519 31.4271 121.924 32.4229 120.735 33.1236C119.546 33.8428 117.698 34.2024 115.191 34.2024ZM115.63 22.4467C116.435 22.4467 116.993 22.3083 117.304 22.0317C117.615 21.7551 117.771 21.2942 117.771 20.6488C117.771 20.0033 117.615 19.5331 117.304 19.2381C116.993 18.9431 116.435 18.7955 115.63 18.7955C114.88 18.7955 114.331 18.9431 113.983 19.2381C113.654 19.5146 113.489 19.9848 113.489 20.6488C113.489 21.2757 113.644 21.7367 113.955 22.0317C114.285 22.3083 114.843 22.4467 115.63 22.4467Z" fill="#FB8351"/>
<path d="M131.895 29.6108C129.296 29.6108 127.375 29.0298 126.131 27.8681C124.905 26.7063 124.292 25.0098 124.292 22.7785C124.292 20.5658 124.914 18.8785 126.158 17.7167C127.402 16.5366 129.315 15.9464 131.895 15.9464C134.493 15.9464 136.414 16.5366 137.658 17.7167C138.922 18.8785 139.552 20.5658 139.552 22.7785C139.552 25.0098 138.93 26.7063 137.686 27.8681C136.441 29.0298 134.511 29.6108 131.895 29.6108ZM131.895 25.8212C132.736 25.8212 133.34 25.5815 133.706 25.102C134.09 24.6226 134.283 23.8481 134.283 22.7785C134.283 21.7275 134.09 20.9622 133.706 20.4828C133.34 19.9848 132.736 19.7359 131.895 19.7359C131.072 19.7359 130.476 19.9848 130.11 20.4828C129.744 20.9622 129.562 21.7275 129.562 22.7785C129.562 23.8481 129.744 24.6226 130.11 25.102C130.476 25.5815 131.072 25.8212 131.895 25.8212Z" fill="#FB8351"/>
<path d="M141.82 14.4798V10.718H147.392V14.4798H141.82ZM142.231 29.3335V20.012H140.339L140.777 16.2225H147.392V29.3335H142.231Z" fill="white"/>
<path d="M149.867 35.3087V16.223H154.341L154.588 17.274C155.118 16.85 155.695 16.5272 156.317 16.306C156.958 16.0662 157.698 15.9464 158.54 15.9464C160.48 15.9464 161.972 16.4442 163.015 17.44C164.075 18.4173 164.606 20.0862 164.606 22.4466C164.606 24.7886 164.048 26.568 162.932 27.7851C161.816 29.0022 160.279 29.6106 158.321 29.6106C157.022 29.6106 155.924 29.3618 155.027 28.8638V35.3087H149.867ZM157.003 25.8212C157.754 25.8212 158.331 25.5538 158.733 25.019C159.136 24.4842 159.337 23.6545 159.337 22.5295C159.337 21.4416 159.144 20.704 158.76 20.3168C158.393 19.9295 157.827 19.7359 157.058 19.7359C156.29 19.7359 155.613 19.994 155.027 20.5104V25.1574C155.321 25.3786 155.613 25.5446 155.906 25.6552C156.198 25.7658 156.564 25.8212 157.003 25.8212Z" fill="white"/>
<path d="M171.483 29.6106C170.367 29.6106 169.315 29.5278 168.327 29.3618C167.357 29.2142 166.589 29.0206 166.021 28.7808V25.0466C166.662 25.3418 167.421 25.5722 168.299 25.7382C169.196 25.9042 169.956 25.9872 170.576 25.9872C171.236 25.9872 171.73 25.9688 172.059 25.9318C172.408 25.895 172.58 25.7382 172.58 25.4616C172.58 25.1482 172.279 24.9084 171.675 24.7424C171.072 24.5764 170.312 24.3367 169.398 24.0233C168.207 23.5991 167.32 23.1013 166.734 22.5295C166.149 21.958 165.857 21.1282 165.857 20.0401C165.857 18.7309 166.369 17.7259 167.394 17.0252C168.418 16.306 170.028 15.9464 172.224 15.9464C173.066 15.9464 173.935 16.0109 174.831 16.14C175.727 16.269 176.432 16.4166 176.945 16.5826V20.2338C176.395 19.994 175.792 19.8189 175.134 19.7082C174.493 19.5975 173.908 19.5423 173.377 19.5423C172.792 19.5423 172.269 19.5699 171.812 19.6253C171.354 19.6805 171.126 19.8373 171.126 20.0954C171.126 20.3904 171.383 20.6026 171.895 20.7316C172.425 20.8608 173.13 21.0636 174.008 21.3402C174.997 21.6352 175.765 21.958 176.314 22.3083C176.881 22.6587 177.275 23.0827 177.494 23.5807C177.731 24.0786 177.851 24.6963 177.851 25.434C177.851 26.7617 177.31 27.7943 176.231 28.5319C175.169 29.251 173.587 29.6106 171.483 29.6106Z" fill="white"/>
<path d="M184.501 29.6102C182.982 29.6102 181.793 29.1769 180.933 28.3102C180.074 27.4434 179.644 26.1711 179.644 24.493V16.2225H184.804V24.0782C184.804 25.2214 185.38 25.7931 186.532 25.7931C186.953 25.7931 187.365 25.7009 187.768 25.5165C188.17 25.3321 188.49 25.1015 188.728 24.825V16.2225H193.888V29.3336H189.058L188.921 28.3378C188.409 28.7066 187.777 29.0109 187.027 29.2506C186.295 29.4903 185.453 29.6102 184.501 29.6102Z" fill="white"/>
<path d="M196.346 29.334V16.223H201.121L201.258 17.274C201.826 16.8868 202.457 16.5734 203.152 16.3336C203.866 16.0754 204.644 15.9464 205.486 15.9464C206.326 15.9464 206.986 16.0662 207.461 16.306C207.938 16.5456 208.322 16.896 208.614 17.357C209.199 16.933 209.859 16.5918 210.591 16.3336C211.34 16.0754 212.219 15.9464 213.226 15.9464C214.744 15.9464 215.86 16.352 216.574 17.1634C217.288 17.9564 217.644 19.1735 217.644 20.8146V29.334H212.566V21.4232C212.566 20.833 212.448 20.4182 212.209 20.1784C211.973 19.9203 211.579 19.7912 211.029 19.7912C210.316 19.7912 209.73 20.0494 209.274 20.5656C209.309 20.8054 209.328 21.036 209.328 21.2572C209.328 21.46 209.328 21.6906 209.328 21.9487V29.334H204.552V21.3402C204.552 20.8054 204.461 20.4182 204.278 20.1784C204.094 19.9203 203.747 19.7912 203.235 19.7912C202.887 19.7912 202.548 19.8834 202.219 20.0678C201.889 20.2522 201.596 20.4734 201.341 20.7316V29.334H196.346Z" fill="white"/>
<path d="M138.011 51.9029C136.636 51.9029 135.493 51.6431 134.581 51.1237C133.683 50.591 133.01 49.8518 132.56 48.9062C132.11 47.9475 131.886 46.8287 131.886 45.5502C131.886 44.1518 132.098 42.9331 132.52 41.8944C132.943 40.8556 133.603 40.0564 134.502 39.4971C135.402 38.9245 136.563 38.6381 137.991 38.6381C138.731 38.6381 139.398 38.6913 139.993 38.7979C140.601 38.9045 141.169 39.0509 141.699 39.2375V40.6758C141.169 40.476 140.608 40.3228 140.013 40.2162C139.418 40.0964 138.791 40.0365 138.131 40.0365C136.98 40.0365 136.068 40.2562 135.395 40.6958C134.721 41.1352 134.238 41.7678 133.947 42.5935C133.656 43.4193 133.511 44.4048 133.511 45.5502C133.511 47.1349 133.882 48.3602 134.621 49.226C135.375 50.0783 136.558 50.5045 138.169 50.5045C138.764 50.5045 139.365 50.4578 139.973 50.3646C140.594 50.2714 141.169 50.1249 141.699 49.9252V51.3835C141.182 51.5433 140.621 51.6697 140.013 51.7631C139.418 51.8563 138.751 51.9029 138.011 51.9029Z" fill="white"/>
<path d="M148.373 51.9023C146.734 51.9023 145.538 51.4827 144.785 50.6438C144.045 49.7914 143.676 48.5661 143.676 46.968C143.676 45.3831 144.053 44.1645 144.805 43.3121C145.558 42.4598 146.749 42.0336 148.373 42.0336C149.999 42.0336 151.189 42.4598 151.941 43.3121C152.695 44.1645 153.071 45.3831 153.071 46.968C153.071 48.5661 152.702 49.7914 151.961 50.6438C151.222 51.4827 150.026 51.9023 148.373 51.9023ZM148.373 50.504C149.496 50.504 150.29 50.2242 150.752 49.6648C151.215 49.0922 151.446 48.1933 151.446 46.968C151.446 45.7426 151.209 44.8504 150.732 44.2911C150.27 43.7183 149.483 43.4319 148.373 43.4319C147.264 43.4319 146.47 43.7183 145.995 44.2911C145.533 44.8504 145.301 45.7426 145.301 46.968C145.301 48.1933 145.533 49.0922 145.995 49.6648C146.457 50.2242 147.25 50.504 148.373 50.504Z" fill="white"/>
<path d="M155.058 51.703V50.3246H156.525V51.703H155.058Z" fill="white"/>
</svg>
