<svg width="295" height="61" viewBox="0 0 295 61" fill="none" xmlns="http://www.w3.org/2000/svg">
<path d="M41.8181 49.9827L2.33861 22.5383C-1.66215 19.7572 -0.302154 13.9667 4.6867 12.605L46.6463 1.12829C47.5351 0.805076 48.4876 0.700156 49.4248 0.822242C50.3619 0.944327 51.2566 1.28989 52.0347 1.83026C52.8127 2.37063 53.4517 3.09022 53.8985 3.9293C54.3453 4.76838 54.5871 5.70276 54.6038 6.65488L52.1171 45.5738C51.8222 50.1934 45.8188 52.7637 41.8181 49.9827Z" fill="#E9327C"/>
<path d="M29.2964 56.7575L6.03781 10.9192C5.50615 9.87053 5.27219 8.69428 5.36174 7.52014C5.45129 6.34601 5.86086 5.2196 6.54529 4.26515C7.22972 3.3107 8.16242 2.56528 9.24053 2.11109C10.3186 1.6569 11.5003 1.5116 12.6551 1.69119L55.759 8.39539C56.7514 8.54976 57.6933 8.93931 58.5072 9.532C59.3211 10.1247 59.9837 10.9036 60.4407 11.8047C60.8976 12.7058 61.1358 13.7033 61.1357 14.7152C61.1355 15.7272 60.897 16.7246 60.4398 17.6256L40.5834 56.7597C40.0503 57.8053 39.2413 58.6826 38.2456 59.295C37.2498 59.9074 36.1058 60.2313 34.9392 60.2311C33.7727 60.2309 32.6288 59.9065 31.6333 59.2937C30.6377 58.6809 29.8291 57.8033 29.2964 56.7575V56.7575Z" fill="#1DACE3"/>
<path d="M54.4982 8.19848L33.0111 4.85635L6.62988 12.0751L17.1599 32.8353L41.8181 49.9828C42.3621 50.3568 42.9605 50.6433 43.5918 50.8321L52.9577 32.374L54.4982 8.19848Z" fill="#3A68B8"/>
<path d="M163.335 13.5562C163.335 12.7514 163.572 11.9646 164.016 11.2953C164.459 10.6261 165.09 10.1045 165.828 9.79648C166.566 9.48847 167.378 9.40788 168.161 9.56491C168.944 9.72193 169.664 10.1095 170.229 10.6787C170.793 11.2478 171.178 11.9729 171.334 12.7623C171.49 13.5517 171.41 14.37 171.104 15.1136C170.798 15.8572 170.281 16.4928 169.617 16.9399C168.953 17.3871 168.172 17.6258 167.373 17.6258C166.306 17.6148 165.285 17.1825 164.53 16.4217C163.775 15.6609 163.346 14.6322 163.335 13.5562V13.5562ZM164.008 19.6151H170.74V42.2226H164.008V19.6151Z" fill="white"/>
<path d="M199.81 30.9191C199.889 32.4134 199.673 33.9085 199.176 35.3186C198.678 36.7286 197.91 38.0256 196.913 39.1351C195.917 40.2445 194.713 41.1445 193.37 41.7833C192.027 42.422 190.572 42.787 189.089 42.8571C187.841 42.9256 186.594 42.7135 185.438 42.2364C184.282 41.7592 183.245 41.0289 182.403 40.0983V51.2668H175.674V19.6153H182.403V21.7399C183.245 20.8097 184.282 20.0798 185.438 19.603C186.594 19.1262 187.841 18.9145 189.089 18.9832C190.572 19.0531 192.027 19.4178 193.37 20.0563C194.712 20.6948 195.917 21.5946 196.913 22.7039C197.909 23.8132 198.678 25.1101 199.176 26.52C199.673 27.9298 199.889 29.4249 199.81 30.9191ZM193.081 30.9191C193.054 29.8606 192.719 28.8335 192.116 27.9663C191.513 27.0991 190.67 26.4303 189.692 26.0436C188.714 25.657 187.644 25.5696 186.617 25.7925C185.59 26.0154 184.651 26.5386 183.918 27.2967C183.184 28.0548 182.689 29.014 182.494 30.0544C182.298 31.0948 182.412 32.1701 182.82 33.1457C183.229 34.1213 183.913 34.9539 184.789 35.5393C185.664 36.1247 186.691 36.4369 187.742 36.4368C188.464 36.4696 189.184 36.3482 189.855 36.0806C190.527 35.813 191.135 35.4053 191.639 34.8842C192.143 34.3631 192.532 33.7404 192.781 33.057C193.029 32.3737 193.132 31.6451 193.081 30.9191V30.9191Z" fill="white"/>
<path d="M220.583 35.4366C220.583 40.6372 216.096 42.8527 211.25 42.8527C209.292 43.0312 207.327 42.6137 205.607 41.6541C203.888 40.6946 202.493 39.2371 201.605 37.4703L207.436 34.1259C207.673 34.9426 208.181 35.6525 208.876 36.137C209.57 36.6214 210.408 36.8509 211.25 36.7872C212.865 36.7872 213.671 36.2882 213.671 35.3856C213.671 32.8973 202.634 34.2102 202.634 26.3861C202.634 21.4583 206.761 18.9722 211.437 18.9722C213.191 18.9167 214.928 19.3361 216.466 20.1868C218.005 21.0375 219.289 22.2884 220.185 23.8091L214.443 26.9294C214.192 26.3359 213.773 25.8302 213.238 25.4752C212.704 25.1203 212.077 24.9318 211.437 24.9334C210.271 24.9334 209.553 25.377 209.553 26.1998C209.547 28.7945 220.583 27.0758 220.583 35.4366Z" fill="white"/>
<path d="M245.179 19.6149V42.2224H238.449V40.0934C237.672 41.0313 236.685 41.7702 235.57 42.2498C234.454 42.7293 233.242 42.9358 232.032 42.8523C227.501 42.8523 223.644 39.5966 223.644 33.4912V19.6149H230.373V32.5021C230.316 33.0409 230.377 33.5858 230.551 34.0986C230.724 34.6114 231.007 35.0799 231.378 35.4715C231.75 35.8631 232.202 36.1684 232.702 36.366C233.203 36.5637 233.74 36.649 234.277 36.616C236.744 36.616 238.458 35.17 238.458 31.9588V19.6149H245.179Z" fill="white"/>
<path d="M283.752 28.3391V42.2221H277.022V28.929C277.022 26.6692 275.944 25.221 273.792 25.221C271.547 25.221 270.293 26.8044 270.293 29.4724V42.2221H263.561V28.929C263.561 26.6692 262.485 25.221 260.331 25.221C258.088 25.221 256.832 26.8044 256.832 29.4724V42.2221H250.102V19.6146H256.843V21.6859C257.54 20.7636 258.456 20.0321 259.506 19.5583C260.556 19.0845 261.708 18.8835 262.855 18.9736C264.007 18.9169 265.154 19.1618 266.184 19.6845C267.214 20.2073 268.092 20.99 268.733 21.9565C269.479 20.9453 270.467 20.1412 271.605 19.6196C272.743 19.0979 273.994 18.8757 275.24 18.9736C280.389 18.9825 283.752 22.6883 283.752 28.3391Z" fill="white"/>
<path d="M289.454 19.4751C292.213 19.4751 294.449 17.2212 294.449 14.4409C294.449 11.6605 292.213 9.4066 289.454 9.4066C286.695 9.4066 284.458 11.6605 284.458 14.4409C284.458 17.2212 286.695 19.4751 289.454 19.4751Z" fill="white"/>
<path d="M71.4542 9.21602H78.1859V42.2225H71.4542V9.21602ZM81.9974 30.9187C81.99 28.5486 82.6807 26.2295 83.9819 24.2551C85.2832 22.2808 87.1365 20.7399 89.3073 19.8277C91.478 18.9155 93.8686 18.673 96.1762 19.1308C98.4838 19.5886 100.605 20.7262 102.27 22.3996C103.936 24.0729 105.072 26.2067 105.533 28.5308C105.995 30.8549 105.762 33.2647 104.863 35.4552C103.965 37.6457 102.442 39.5183 100.487 40.8359C98.5318 42.1535 96.2328 42.8568 93.8809 42.8568C92.3188 42.8736 90.7691 42.5766 89.3223 41.9831C87.8754 41.3896 86.5604 40.5115 85.454 39.4001C84.3477 38.2887 83.4722 36.9662 82.8787 35.51C82.2852 34.0538 81.9856 32.493 81.9974 30.9187V30.9187ZM99.048 30.9187C99.0216 29.8963 98.6966 28.9045 98.1138 28.0672C97.5309 27.23 96.716 26.5845 95.7711 26.2116C94.8261 25.8386 93.793 25.7547 92.8009 25.9704C91.8089 26.1861 90.902 26.6918 90.1937 27.4242C89.4853 28.1566 89.007 29.0832 88.8185 30.0882C88.63 31.0931 88.7398 32.1318 89.134 33.0742C89.5282 34.0166 90.1894 34.821 91.0349 35.3867C91.8804 35.9524 92.8726 36.2543 93.8875 36.2546C94.5824 36.2746 95.2739 36.1492 95.9184 35.8864C96.5629 35.6237 97.1463 35.2292 97.632 34.7279C98.1177 34.2266 98.495 33.6293 98.7402 32.9737C98.9855 32.3181 99.0932 31.6184 99.0568 30.9187H99.048ZM132.606 19.6083V41.087C132.606 48.6828 126.728 51.8918 120.762 51.8918C118.662 52.0516 116.559 51.6256 114.683 50.6605C112.807 49.6954 111.231 48.2285 110.128 46.4207L115.87 43.0741C116.333 44.0177 117.071 44.7961 117.986 45.3054C118.9 45.8147 119.947 46.0305 120.986 45.9239C121.649 46.0152 122.325 45.9552 122.962 45.7484C123.599 45.5416 124.182 45.1932 124.668 44.7289C125.154 44.2647 125.53 43.6964 125.769 43.0661C126.008 42.4358 126.103 41.7594 126.048 41.087V39.0068C125.259 39.9783 124.256 40.7501 123.118 41.2604C121.981 41.7707 120.74 42.0053 119.496 41.9453C116.535 41.8526 113.726 40.602 111.664 38.4583C109.602 36.3147 108.449 33.4463 108.449 30.4608C108.449 27.4752 109.602 24.6069 111.664 22.4633C113.726 20.3196 116.535 19.069 119.496 18.9763C120.74 18.9163 121.981 19.1508 123.118 19.6611C124.256 20.1714 125.259 20.9433 126.048 21.9148V19.6083H132.606ZM126.056 30.4597C126.101 29.3677 125.82 28.2874 125.25 27.3576C124.68 26.4277 123.848 25.6909 122.859 25.2418C121.87 24.7927 120.771 24.6519 119.702 24.8374C118.634 25.023 117.645 25.5265 116.862 26.2831C116.08 27.0397 115.54 28.0149 115.311 29.0833C115.083 30.1517 115.178 31.2644 115.582 32.2784C115.986 33.2925 116.682 34.1614 117.581 34.7735C118.479 35.3857 119.539 35.713 120.623 35.7135C121.33 35.7636 122.04 35.664 122.706 35.4211C123.373 35.1782 123.982 34.7974 124.493 34.3032C125.005 33.8089 125.409 33.2122 125.678 32.5514C125.947 31.8906 126.076 31.1804 126.056 30.4663V30.4597ZM136.417 30.9032C136.41 28.533 137.1 26.214 138.402 24.2396C139.703 22.2652 141.556 20.7244 143.727 19.8122C145.898 18.9 148.288 18.6575 150.596 19.1153C152.903 19.5731 155.024 20.7107 156.69 22.384C158.356 24.0574 159.491 26.1912 159.953 28.5153C160.414 30.8394 160.181 33.2492 159.283 35.4397C158.385 37.6302 156.861 39.5028 154.906 40.8203C152.951 42.1379 150.652 42.8413 148.3 42.8413C146.74 42.8581 145.191 42.5616 143.745 41.969C142.3 41.3765 140.985 40.4998 139.879 39.39C138.773 38.2802 137.897 36.9596 137.303 35.5052C136.708 34.0508 136.407 32.4917 136.417 30.9187V30.9032ZM153.468 30.9032C153.442 29.8802 153.117 28.8876 152.534 28.0496C151.951 27.2117 151.136 26.5656 150.19 26.1922C149.245 25.8188 148.211 25.7347 147.218 25.9504C146.226 26.1661 145.318 26.672 144.609 27.4049C143.901 28.1377 143.422 29.065 143.234 30.0706C143.045 31.0762 143.155 32.1154 143.55 33.0584C143.944 34.0013 144.606 34.806 145.452 35.3717C146.299 35.9375 147.292 36.2392 148.307 36.2391C149 36.2576 149.689 36.1318 150.331 35.8694C150.974 35.607 151.555 35.2138 152.04 34.7143C152.524 34.2148 152.901 33.6198 153.147 32.9667C153.393 32.3136 153.502 31.6164 153.468 30.9187V30.9032Z" fill="white"/>
</svg>
